<svg width="58" height="23" viewBox="0 0 58 23" fill="#000" xmlns="http://www.w3.org/2000/svg">
<path d="M30.2491 11.0186L30.1395 10.468H30.0848C29.9905 10.5867 29.8597 10.6962 29.6985 10.7996C29.3457 11.0186 28.9411 11.1311 28.4879 11.1311C27.8704 11.1311 27.3777 10.9669 27.0066 10.6353C26.6355 10.3038 26.45 9.90227 26.45 9.42472C26.45 8.85288 26.6477 8.39662 27.0461 8.05899C27.4416 7.72136 28.0164 7.55407 28.7647 7.55407H30.0301V7.44457C30.0301 7.12823 29.9388 6.87577 29.7593 6.68414C29.5799 6.49251 29.3396 6.39822 29.0384 6.39822C28.7525 6.39822 28.5214 6.47122 28.351 6.61722C28.1776 6.76322 28.0773 6.93052 28.0468 7.11302H26.672C26.7389 6.6081 26.9731 6.17617 27.3777 5.82637C27.7822 5.47354 28.3358 5.29712 29.0415 5.29712C29.7472 5.29712 30.316 5.50396 30.754 5.91459C31.192 6.32522 31.4079 6.83622 31.4079 7.44457V11.0216H30.2491V11.0186ZM30.0301 8.76163V8.59738H28.8742C28.1776 8.59738 27.8278 8.83463 27.8278 9.31218C27.8278 9.53118 27.9039 9.7076 28.059 9.83536C28.2141 9.96311 28.4301 10.027 28.7069 10.027C29.1267 10.027 29.4491 9.91444 29.6802 9.6924C29.9145 9.46731 30.0301 9.15705 30.0301 8.76163Z" fill="#000"/>
<path d="M32.2871 11.0187V3.31104H33.662V6.00903H33.7167C33.8201 5.87824 33.9479 5.75961 34.103 5.65619C34.4619 5.41285 34.8665 5.29423 35.3136 5.29423C36.0467 5.29423 36.6611 5.56494 37.1569 6.10332C37.6527 6.64171 37.8991 7.34434 37.8991 8.21123C37.8991 9.07811 37.6527 9.78076 37.1569 10.3191C36.6611 10.8575 36.0467 11.1282 35.3136 11.1282C34.83 11.1282 34.4102 11.0096 34.0574 10.7754C33.9023 10.672 33.7715 10.5503 33.662 10.4134H33.6072L33.4977 11.0187H32.2871ZM34.0574 9.42791C34.322 9.71687 34.6657 9.86288 35.0916 9.86288C35.5174 9.86288 35.8611 9.71687 36.1257 9.42791C36.3904 9.13895 36.5212 8.73136 36.5212 8.21123C36.5212 7.69109 36.3904 7.2835 36.1257 6.99454C35.8611 6.70558 35.5174 6.55958 35.0916 6.55958C34.6657 6.55958 34.322 6.70558 34.0574 6.99454C33.7928 7.2835 33.662 7.69109 33.662 8.21123C33.662 8.73136 33.7958 9.13591 34.0574 9.42791Z" fill="#000"/>
<path d="M38.562 11.0187V3.31104H39.9369V6.00903H39.9916C40.095 5.87824 40.2228 5.75961 40.3779 5.65619C40.7368 5.41285 41.1414 5.29423 41.5885 5.29423C42.3216 5.29423 42.936 5.56494 43.4318 6.10332C43.9276 6.64171 44.174 7.34434 44.174 8.21123C44.174 9.07811 43.9276 9.78076 43.4318 10.3191C42.936 10.8575 42.3216 11.1282 41.5885 11.1282C41.1049 11.1282 40.6851 11.0096 40.3323 10.7754C40.1772 10.672 40.0464 10.5503 39.9369 10.4134H39.8821L39.7726 11.0187H38.562ZM40.3353 9.42791C40.6 9.71687 40.9437 9.86288 41.3695 9.86288C41.7954 9.86288 42.1391 9.71687 42.4037 9.42791C42.6683 9.13895 42.7991 8.73136 42.7991 8.21123C42.7991 7.69109 42.6683 7.2835 42.4037 6.99454C42.1391 6.70558 41.7954 6.55958 41.3695 6.55958C40.9437 6.55958 40.6 6.70558 40.3353 6.99454C40.0707 7.2835 39.9399 7.69109 39.9399 8.21123C39.9369 8.73136 40.0707 9.13591 40.3353 9.42791Z" fill="#000"/>
<path d="M48.3047 11.0186L48.1952 10.468H48.1405C48.0462 10.5867 47.9154 10.6962 47.7542 10.7996C47.4013 11.0186 46.9968 11.1311 46.5436 11.1311C45.9261 11.1311 45.4333 10.9669 45.0622 10.6353C44.6912 10.3038 44.5056 9.90227 44.5056 9.42472C44.5056 8.85288 44.7033 8.39662 45.1018 8.05899C45.4972 7.72136 46.0721 7.55407 46.8204 7.55407H48.0857V7.44457C48.0857 7.12823 47.9945 6.87577 47.815 6.68414C47.6355 6.49251 47.3952 6.39822 47.0941 6.39822C46.8082 6.39822 46.577 6.47122 46.4067 6.61722C46.2333 6.76322 46.1329 6.93052 46.1025 7.11302H44.7277C44.7946 6.6081 45.0288 6.17617 45.4333 5.82637C45.8379 5.47354 46.3915 5.29712 47.0971 5.29712C47.8028 5.29712 48.3716 5.50396 48.8096 5.91459C49.2476 6.32522 49.4636 6.83622 49.4636 7.44457V11.0216H48.3047V11.0186ZM48.0857 8.76163V8.59738H46.9299C46.2333 8.59738 45.8835 8.83463 45.8835 9.31218C45.8835 9.53118 45.9595 9.7076 46.1147 9.83536C46.2698 9.96311 46.4858 10.027 46.7626 10.027C47.1823 10.027 47.5047 9.91444 47.7359 9.6924C47.9701 9.46731 48.0857 9.15705 48.0857 8.76163Z" fill="#000"/>
<path d="M30.2917 17.9234H31.627C31.5784 18.1668 31.4962 18.401 31.3867 18.6291C31.2772 18.8572 31.1251 19.0823 30.9335 19.3074C30.7419 19.5325 30.4833 19.7119 30.1579 19.8519C29.8355 19.9918 29.4704 20.0587 29.0629 20.0587C28.2598 20.0587 27.5937 19.7941 27.0736 19.2648C26.5504 18.7356 26.2888 18.0573 26.2888 17.2299C26.2888 16.4056 26.5504 15.7273 27.0736 15.195C27.5968 14.6658 28.2598 14.4011 29.0629 14.4011C29.4674 14.4011 29.8324 14.4711 30.1579 14.608C30.4803 14.7479 30.7388 14.9273 30.9335 15.1463C31.1251 15.3684 31.2772 15.5874 31.3867 15.8094C31.4962 16.0315 31.5784 16.2535 31.627 16.4817H30.2917C30.0788 15.9129 29.6682 15.6269 29.0629 15.6269C28.6583 15.6269 28.3146 15.776 28.0378 16.0741C27.761 16.3722 27.6211 16.7584 27.6211 17.2269C27.6211 17.6953 27.761 18.0816 28.0378 18.3797C28.3146 18.6778 28.6583 18.8268 29.0629 18.8268C29.6925 18.8299 30.1001 18.5287 30.2917 17.9234Z" fill="#000"/>
<path d="M32.6795 15.195C33.2027 14.6658 33.8658 14.4011 34.6688 14.4011C35.4718 14.4011 36.138 14.6658 36.6611 15.195C37.1843 15.7243 37.4459 16.4026 37.4459 17.2299C37.4459 18.0542 37.1843 18.7325 36.6611 19.2648C36.138 19.7941 35.4749 20.0587 34.6688 20.0587C33.8658 20.0587 33.1997 19.7941 32.6795 19.2648C32.1564 18.7356 31.8948 18.0573 31.8948 17.2299C31.8948 16.4056 32.1564 15.7273 32.6795 15.195ZM33.6438 18.3827C33.9206 18.6808 34.2643 18.8299 34.6688 18.8299C35.0734 18.8299 35.4171 18.6808 35.6939 18.3827C35.9707 18.0846 36.1106 17.6983 36.1106 17.2299C36.1106 16.7615 35.9707 16.3752 35.6939 16.0771C35.4171 15.779 35.0734 15.63 34.6688 15.63C34.2643 15.63 33.9206 15.779 33.6438 16.0771C33.367 16.3752 33.227 16.7615 33.227 17.2299C33.2301 17.7014 33.367 18.0846 33.6438 18.3827Z" fill="#000"/>
<path d="M42.0357 19.9522L41.9292 19.3652H41.8745C41.768 19.5021 41.6403 19.6177 41.4912 19.718C41.1506 19.9462 40.743 20.0587 40.2745 20.0587C39.5628 20.0587 38.9666 19.7971 38.486 19.274C38.0054 18.7508 37.7651 18.0694 37.7651 17.2299C37.7651 16.3904 38.0054 15.7091 38.486 15.1859C38.9666 14.6627 39.5628 14.4011 40.2745 14.4011C40.7004 14.4011 41.0928 14.5198 41.4486 14.754C41.5977 14.8543 41.7224 14.9669 41.8228 15.0946H41.8775V12.4788H43.2128V19.9522H42.0357ZM39.4837 18.4101C39.7392 18.6899 40.0738 18.8329 40.4875 18.8329C40.9011 18.8329 41.2357 18.693 41.4912 18.4101C41.7467 18.1303 41.8745 17.7348 41.8745 17.2299C41.8745 16.725 41.7467 16.3326 41.4912 16.0497C41.2357 15.7699 40.9011 15.6269 40.4875 15.6269C40.0738 15.6269 39.7392 15.7669 39.4837 16.0497C39.2282 16.3296 39.1004 16.725 39.1004 17.2299C39.1004 17.7348 39.2282 18.1272 39.4837 18.4101Z" fill="#000"/>
<path d="M44.0647 13.6529V12.3723H45.5065V13.6529H44.0647ZM44.1164 19.9523V14.5076H45.4517V19.9523H44.1164Z" fill="#000"/>
<path d="M46.3064 19.9522V14.5076H47.5353L47.6417 15.0399H47.6965C47.7816 14.9334 47.9033 14.827 48.0584 14.7205C48.3869 14.5076 48.7641 14.4011 49.1899 14.4011C49.8105 14.4011 50.3184 14.614 50.723 15.0368C51.1245 15.4596 51.3252 16.0132 51.3252 16.6976V19.9522H49.9899V16.8041C49.9899 16.4543 49.8804 16.1714 49.6644 15.9554C49.4485 15.7395 49.1656 15.63 48.8158 15.63C48.466 15.63 48.1831 15.7395 47.9672 15.9554C47.7512 16.1714 47.6417 16.4543 47.6417 16.8041V19.9522H46.3064Z" fill="#000"/>
<path d="M52.0157 20.2199H53.4027C53.4301 20.3325 53.4788 20.445 53.5426 20.5515C53.6065 20.6579 53.7282 20.7644 53.9107 20.8678C54.0932 20.9712 54.3152 21.0229 54.5768 21.0229C54.9601 21.0229 55.2703 20.9134 55.5045 20.6914C55.7388 20.4693 55.8574 20.1713 55.8574 19.7941V19.0458H55.8026C55.7175 19.1462 55.5958 19.2466 55.4407 19.3439C55.1487 19.5355 54.7715 19.6329 54.3091 19.6329C53.6035 19.6329 53.0195 19.3895 52.5541 18.9029C52.0887 18.4162 51.8545 17.7866 51.8545 17.02C51.8545 16.2505 52.0887 15.6239 52.5541 15.1372C53.0195 14.6506 53.6065 14.4072 54.3091 14.4072C54.7502 14.4072 55.1426 14.5137 55.4833 14.7266C55.6384 14.827 55.7631 14.9334 55.8574 15.046H55.9121L56.0186 14.5137H57.1927V19.8093C57.1927 20.5272 56.9554 21.1051 56.484 21.5431C56.0095 21.9811 55.3768 22.2001 54.5799 22.2001C54.1814 22.2001 53.8225 22.1423 53.5031 22.0298C53.1837 21.9142 52.9343 21.7773 52.7548 21.613C52.5784 21.4488 52.4294 21.2724 52.3107 21.0807C52.1921 20.8891 52.1161 20.7218 52.0765 20.5789C52.037 20.4298 52.0157 20.3112 52.0157 20.2199ZM55.4772 15.9798C55.2217 15.7091 54.9053 15.5752 54.5281 15.5752C54.151 15.5752 53.8346 15.7091 53.5791 15.9798C53.3236 16.2505 53.1959 16.5942 53.1959 17.014C53.1959 17.4337 53.3236 17.7805 53.5791 18.0481C53.8346 18.3189 54.151 18.4527 54.5281 18.4527C54.9053 18.4527 55.2217 18.3189 55.4772 18.0481C55.7327 17.7774 55.8604 17.4337 55.8604 17.014C55.8604 16.5973 55.7327 16.2505 55.4772 15.9798Z" fill="#000"/>
<path d="M3.12332 15.5326C4.29742 14.3433 5.78482 13.7471 7.59159 13.7471C8.50106 13.7471 9.31929 13.9022 10.0463 14.2155C10.7732 14.5258 11.3511 14.9303 11.7831 15.4261C12.215 15.9219 12.5526 16.4177 12.802 16.9105C13.0484 17.4063 13.2279 17.9082 13.3404 18.4192H10.3474C9.8668 17.1417 8.9482 16.5029 7.59159 16.5029C6.68212 16.5029 5.91561 16.8375 5.29206 17.5097C4.66851 18.1789 4.35826 19.0427 4.35826 20.0982C4.35826 21.1537 4.66851 22.0145 5.29206 22.6867C5.37115 22.7719 5.45023 22.851 5.5354 22.924H9.1672H9.63258C9.94284 22.6015 10.1831 22.1818 10.3504 21.6556H13.3435C13.2553 22.0875 13.1214 22.5103 12.945 22.924H22.6541L14.9982 0.673828H8.06306L3.00165 15.3866L2.8374 15.8672C2.92561 15.7516 3.01991 15.639 3.12332 15.5326Z" fill="#1ABAA3"/>
<path d="M1.3651 20.1194L0.400879 22.9208H1.93694C1.56281 22.0904 1.36814 21.1596 1.3651 20.1194Z" fill="#1ABAA3"/>
</svg>
