<svg width="55" height="23" viewBox="0 0 55 23" fill="none" xmlns="http://www.w3.org/2000/svg">
<path d="M29.9136 11.4108L29.8053 10.8664H29.7512C29.658 10.9837 29.5287 11.092 29.3693 11.1943C29.0204 11.4108 28.6204 11.5221 28.1723 11.5221C27.5617 11.5221 27.0745 11.3597 26.7076 11.0319C26.3407 10.704 26.1572 10.307 26.1572 9.83486C26.1572 9.26945 26.3527 8.81832 26.7467 8.48449C27.1377 8.15065 27.7061 7.98524 28.4459 7.98524H29.6971V7.87697C29.6971 7.56419 29.6069 7.31456 29.4294 7.12509C29.252 6.93562 29.0144 6.84238 28.7166 6.84238C28.4339 6.84238 28.2053 6.91456 28.0369 7.05892C27.8655 7.20328 27.7662 7.3687 27.7362 7.54915H26.3768C26.4429 7.0499 26.6745 6.62283 27.0745 6.27697C27.4745 5.9281 28.0219 5.75366 28.7196 5.75366C29.4174 5.75366 29.9798 5.95817 30.4129 6.36419C30.8459 6.7702 31.0595 7.27547 31.0595 7.87697V11.4138H29.9136V11.4108ZM29.6971 9.17923V9.01682H28.5542C27.8655 9.01682 27.5196 9.25141 27.5196 9.72359C27.5196 9.94013 27.5948 10.1146 27.7482 10.2409C27.9016 10.3672 28.1151 10.4304 28.3888 10.4304C28.8038 10.4304 29.1226 10.3191 29.3512 10.0995C29.5828 9.87697 29.6971 9.5702 29.6971 9.17923Z" fill="#000"/>
<path d="M31.9287 11.4106V3.78955H33.2881V6.45722H33.3422C33.4445 6.3279 33.5708 6.2106 33.7242 6.10835C34.0791 5.86775 34.4791 5.75045 34.9212 5.75045C35.646 5.75045 36.2535 6.01812 36.7437 6.55045C37.234 7.08278 37.4776 7.77752 37.4776 8.63466C37.4776 9.49181 37.234 10.1865 36.7437 10.7189C36.2535 11.2512 35.646 11.5189 34.9212 11.5189C34.443 11.5189 34.028 11.4016 33.6791 11.17C33.5257 11.0677 33.3964 10.9474 33.2881 10.8121H33.234L33.1257 11.4106H31.9287ZM33.6791 9.83767C33.9407 10.1234 34.2806 10.2677 34.7016 10.2677C35.1227 10.2677 35.4625 10.1234 35.7242 9.83767C35.9859 9.55196 36.1152 9.14895 36.1152 8.63466C36.1152 8.12038 35.9859 7.71737 35.7242 7.43166C35.4625 7.14594 35.1227 7.00158 34.7016 7.00158C34.2806 7.00158 33.9407 7.14594 33.6791 7.43166C33.4174 7.71737 33.2881 8.12038 33.2881 8.63466C33.2881 9.14895 33.4204 9.55196 33.6791 9.83767Z" fill="#000"/>
<path d="M38.1331 11.4106V3.78955H39.4925V6.45722H39.5466C39.6488 6.3279 39.7752 6.2106 39.9285 6.10835C40.2834 5.86775 40.6834 5.75045 41.1255 5.75045C41.8503 5.75045 42.4579 6.01812 42.9481 6.55045C43.4383 7.08278 43.6819 7.77752 43.6819 8.63466C43.6819 9.49181 43.4383 10.1865 42.9481 10.7189C42.4579 11.2512 41.8503 11.5189 41.1255 11.5189C40.6473 11.5189 40.2323 11.4016 39.8834 11.17C39.73 11.0677 39.6007 10.9474 39.4925 10.8121H39.4383L39.33 11.4106H38.1331ZM39.8834 9.83767C40.1451 10.1234 40.4849 10.2677 40.906 10.2677C41.327 10.2677 41.6669 10.1234 41.9285 9.83767C42.1902 9.55196 42.3195 9.14895 42.3195 8.63466C42.3195 8.12038 42.1902 7.71737 41.9285 7.43166C41.6669 7.14594 41.327 7.00158 40.906 7.00158C40.4849 7.00158 40.1451 7.14594 39.8834 7.43166C39.6218 7.71737 39.4925 8.12038 39.4925 8.63466C39.4925 9.14895 39.6248 9.55196 39.8834 9.83767Z" fill="#000"/>
<path d="M47.7662 11.4108L47.6579 10.8664H47.6038C47.5105 10.9837 47.3812 11.092 47.2218 11.1943C46.8729 11.4108 46.4729 11.5221 46.0248 11.5221C45.4143 11.5221 44.9271 11.3597 44.5601 11.0319C44.1932 10.704 44.0098 10.307 44.0098 9.83486C44.0098 9.26945 44.2053 8.81832 44.5992 8.48449C44.9902 8.15065 45.5586 7.98524 46.2985 7.98524H47.5496V7.87697C47.5496 7.56419 47.4594 7.31456 47.2819 7.12509C47.1045 6.93562 46.8669 6.84238 46.5692 6.84238C46.2865 6.84238 46.0579 6.91456 45.8895 7.05892C45.718 7.20328 45.6188 7.3687 45.5887 7.54915H44.2293C44.2955 7.0499 44.5271 6.62283 44.9271 6.27697C45.3271 5.9281 45.8744 5.75366 46.5722 5.75366C47.2699 5.75366 47.8323 5.95817 48.2654 6.36419C48.6985 6.7702 48.912 7.27547 48.912 7.87697V11.4138H47.7662V11.4108ZM47.5496 9.17923V9.01682H46.4068C45.718 9.01682 45.3722 9.25141 45.3722 9.72359C45.3722 9.94013 45.4474 10.1146 45.6007 10.2409C45.7541 10.3672 45.9677 10.4304 46.2413 10.4304C46.6564 10.4304 46.9752 10.3191 47.2038 10.0995C47.4353 9.87697 47.5496 9.5702 47.5496 9.17923Z" fill="#000"/>
<path d="M26.4309 19.4468V13.895H27.682L27.7903 14.4393H27.8444C27.9317 14.322 28.0399 14.2138 28.1723 14.1115C28.461 13.895 28.7888 13.7837 29.1527 13.7837C29.5888 13.7837 29.9768 13.91 30.3166 14.1656C30.47 14.295 30.5873 14.4243 30.6745 14.5476H30.7286C30.8219 14.4243 30.9542 14.298 31.1196 14.1656C31.4745 13.913 31.8896 13.7837 32.3617 13.7837C32.9362 13.7837 33.4234 14.0002 33.8264 14.4303C34.2294 14.8604 34.4309 15.3897 34.4309 16.0153V19.4438H33.0715V16.1265C33.0715 15.7777 32.9873 15.51 32.8219 15.3205C32.6565 15.1311 32.4309 15.0378 32.1482 15.0378C31.8444 15.0378 31.5948 15.1401 31.4023 15.3476C31.2099 15.5551 31.1136 15.8138 31.1136 16.1265V19.4468H29.7542V16.1265C29.7542 15.7777 29.67 15.51 29.5046 15.3205C29.3362 15.1311 29.1136 15.0378 28.8309 15.0378C28.5271 15.0378 28.2775 15.1401 28.085 15.3476C27.8926 15.5551 27.7963 15.8138 27.7963 16.1265V19.4468H26.4309Z" fill="#000"/>
<path d="M38.9482 17.8136H40.3647C40.3286 17.9519 40.2565 18.1053 40.1512 18.2768C40.0459 18.4482 39.8986 18.6347 39.7061 18.8422C39.5136 19.0497 39.252 19.2181 38.9181 19.3535C38.5843 19.4888 38.2144 19.555 37.8083 19.555C36.9873 19.555 36.3106 19.2843 35.7783 18.7429C35.2459 18.2016 34.9783 17.5098 34.9783 16.6677C34.9783 15.8256 35.2459 15.1339 35.7783 14.5925C36.3106 14.0512 36.9873 13.7805 37.8083 13.7805C38.5692 13.7805 39.2129 14.0482 39.7392 14.5805C40.2655 15.1128 40.5271 15.7715 40.5271 16.5565C40.5271 16.6226 40.5151 16.7519 40.4941 16.9474L40.473 17.1008H36.3377C36.3948 17.4918 36.5602 17.8076 36.8279 18.0482C37.0956 18.2888 37.4234 18.4061 37.8083 18.4061C38.0971 18.4061 38.3437 18.3429 38.5482 18.2166C38.7497 18.0933 38.885 17.958 38.9482 17.8136ZM36.3377 16.1805H39.1678C39.1016 15.8106 38.9512 15.5098 38.7166 15.2783C38.482 15.0467 38.1783 14.9294 37.8083 14.9294C37.4174 14.9294 37.0956 15.0437 36.8459 15.2722C36.5933 15.4978 36.4249 15.8016 36.3377 16.1805Z" fill="#000"/>
<path d="M45.2069 19.4467L45.0986 18.8482H45.0445C44.9362 18.9866 44.8039 19.1069 44.6535 19.2061C44.3046 19.4377 43.8926 19.555 43.4114 19.555C42.6866 19.555 42.079 19.2873 41.5888 18.755C41.0986 18.2226 40.855 17.5279 40.855 16.6708C40.855 15.8136 41.0986 15.1189 41.5888 14.5866C42.079 14.0542 42.6866 13.7866 43.4114 13.7866C43.8475 13.7866 44.2445 13.9069 44.6084 14.1444C44.7618 14.2467 44.8881 14.361 44.9903 14.4933H45.0445V12.4873H46.4039V19.4467H45.2069ZM42.6054 17.8738C42.867 18.1595 43.2069 18.3038 43.6279 18.3038C44.049 18.3038 44.3888 18.1595 44.6505 17.8738C44.9121 17.5881 45.0415 17.185 45.0415 16.6708C45.0415 16.1565 44.9121 15.7535 44.6505 15.4678C44.3888 15.182 44.049 15.0377 43.6279 15.0377C43.2069 15.0377 42.867 15.182 42.6054 15.4678C42.3437 15.7535 42.2144 16.1565 42.2144 16.6708C42.2144 17.185 42.3467 17.585 42.6054 17.8738Z" fill="#000"/>
<path d="M47.3301 19.4467V13.8948H48.6895V19.4467H47.3301Z" fill="#000"/>
<path d="M53.0445 19.4467L52.9362 18.9023H52.8821C52.7888 19.0196 52.6595 19.1279 52.5001 19.2302C52.1512 19.4467 51.7512 19.558 51.3031 19.558C50.6926 19.558 50.2054 19.3956 49.8385 19.0677C49.4715 18.7399 49.2881 18.3429 49.2881 17.8708C49.2881 17.3053 49.4836 16.8542 49.8776 16.5204C50.2685 16.1865 50.837 16.0211 51.5768 16.0211H52.8279V15.9129C52.8279 15.6001 52.7377 15.3505 52.5603 15.161C52.3828 14.9715 52.1452 14.8783 51.8475 14.8783C51.5648 14.8783 51.3362 14.9505 51.1678 15.0948C50.9964 15.2392 50.8971 15.4046 50.867 15.585H49.5076C49.5738 15.0858 49.8054 14.6587 50.2054 14.3129C50.6054 13.964 51.1527 13.7896 51.8505 13.7896C52.5482 13.7896 53.1106 13.9941 53.5437 14.4001C53.9768 14.8061 54.1903 15.3114 54.1903 15.9129V19.4497H53.0445V19.4467ZM52.8279 17.2151V17.0527H51.6851C50.9964 17.0527 50.6505 17.2873 50.6505 17.7595C50.6505 17.976 50.7257 18.1505 50.8791 18.2768C51.0324 18.4031 51.246 18.4662 51.5197 18.4662C51.9347 18.4662 52.2535 18.355 52.4821 18.1354C52.7136 17.9129 52.8279 17.6061 52.8279 17.2151Z" fill="#000"/>
<path d="M8.14825 17.0107C7.59487 17.0107 7.14374 17.1972 6.79186 17.5731C6.44299 17.9491 6.26855 18.4213 6.26855 18.9897V22.6739H9.83247V18.9897C9.83247 18.3581 9.67908 17.8679 9.37833 17.525C9.07457 17.1822 8.66254 17.0107 8.14825 17.0107Z" fill="#007C99"/>
<path d="M4.82481 15.4257C5.1015 15.6633 5.32105 15.8949 5.47744 16.1174H5.57669C5.74812 15.8949 5.98572 15.6633 6.28947 15.4257C6.93609 14.9656 7.68797 14.734 8.54511 14.734C9.58872 14.734 10.4759 15.128 11.2068 15.9129C11.9406 16.6979 12.3045 17.6573 12.3045 18.7911V22.6738H22.3977L14.8278 0.673828H7.97068L3.12256 14.758C3.74511 14.8272 4.31353 15.0468 4.82481 15.4257Z" fill="#007C99"/>
<path d="M3.79637 18.9896C3.79637 18.358 3.64599 17.8678 3.34223 17.525C3.08358 17.2332 2.75276 17.0678 2.34373 17.0227L0.400879 22.6738H3.79938V18.9896H3.79637Z" fill="#007C99"/>
</svg>
