<svg width="468" height="117" viewBox="0 0 468 117" fill="none" xmlns="http://www.w3.org/2000/svg">
<rect width="468" height="117" />
<g clip-path="url(#clip0_0_1)">
<path d="M124.506 42.189C124.506 43.2107 124.348 44.2438 124.034 45.2881C123.708 46.3323 123.181 47.2753 122.451 48.1063C121.71 48.937 120.756 49.6109 119.577 50.1275C118.398 50.6437 116.949 50.902 115.231 50.902H103.116V23.6853H115.231C116.343 23.6853 117.387 23.8986 118.386 24.3139C119.375 24.7406 120.239 25.3133 120.98 26.0431C121.721 26.7728 122.305 27.6151 122.732 28.5918C123.147 29.5688 123.36 30.6242 123.36 31.7357C123.36 32.5216 123.181 33.2853 122.81 34.0376C122.44 34.7897 122.047 35.4522 121.654 36.0138C122.417 36.6988 123.08 37.6082 123.652 38.7422C124.225 39.8762 124.506 41.0328 124.506 42.189ZM109.651 33.431H115.231C115.681 33.431 116.062 33.2628 116.365 32.9147C116.669 32.5781 116.815 32.1849 116.815 31.7357C116.815 31.2867 116.669 30.8938 116.365 30.5458C116.062 30.1977 115.681 30.0292 115.231 30.0292H109.651V33.431ZM115.231 44.5694C115.467 44.5694 115.703 44.491 115.927 44.345C116.152 44.1988 116.354 44.0081 116.523 43.7723C116.691 43.5366 116.826 43.2783 116.927 42.9975C117.017 42.717 117.061 42.4476 117.061 42.189C117.061 41.9307 117.017 41.6614 116.927 41.3808C116.826 41.1 116.691 40.8418 116.523 40.606C116.354 40.3703 116.152 40.1678 115.927 40.0111C115.703 39.8537 115.467 39.7753 115.231 39.7753H109.651V44.5694H115.231ZM149.488 23.6853V40.561C149.488 41.9872 149.207 43.3456 148.646 44.6255C148.073 45.9055 147.287 47.051 146.288 48.0501C145.289 49.0496 144.133 49.8244 142.841 50.3632C141.55 50.9134 140.18 51.1831 138.754 51.1831C137.328 51.1831 135.981 50.9131 134.701 50.3858C133.421 49.8581 132.276 49.0944 131.276 48.0952C130.277 47.0846 129.48 45.9281 128.896 44.637C128.312 43.3456 128.02 41.9872 128.02 40.561V23.6853H134.555V40.561C134.555 41.1673 134.667 41.7289 134.881 42.2452C135.094 42.7617 135.386 43.2107 135.767 43.5927C136.149 43.9744 136.587 44.2775 137.092 44.5021C137.598 44.7268 138.148 44.8391 138.754 44.8391C139.338 44.8391 139.888 44.7268 140.405 44.5021C140.921 44.2775 141.37 43.9744 141.752 43.5927C142.134 43.2107 142.426 42.7617 142.639 42.2452C142.852 41.7289 142.954 41.1673 142.954 40.561V23.6853H149.488ZM162.288 42.7843L159.986 46.4221V50.902H153.452V23.6853H159.986V34.2283L166.645 23.6853H174.415L166.173 36.6874L175.2 50.902H167.476L162.288 42.7843ZM198.645 23.6853V50.902H192.11V43.615H183.711V50.902H177.177V23.6853H183.711V37.2712H192.11V23.6853H198.645ZM220.202 49.1956H208.481L207.604 50.902H200.711L214.577 23.6853L228.444 50.902H221.112L220.202 49.1956ZM216.991 42.8627L214.341 36.4069L211.725 42.8627H216.991ZM249.003 39.1801C248.576 39.5729 248.138 39.921 247.689 40.2243C247.24 40.5273 246.757 40.7856 246.229 40.9991L251.338 50.9471H243.972L239.256 41.7514H237.033V50.902H230.499V23.6853H242.861C244.017 23.7414 245.129 23.9772 246.173 24.3925C247.217 24.8192 248.138 25.4481 248.958 26.2678C250.754 28.0643 251.652 30.2199 251.652 32.7237C251.652 33.9364 251.428 35.093 250.968 36.2045C250.507 37.3163 249.845 38.3043 249.003 39.1801ZM237.033 35.4185H242.547C243.254 35.4185 243.86 35.1491 244.365 34.5989C244.871 34.0602 245.118 33.431 245.118 32.7237C245.118 32.0053 244.871 31.3765 244.365 30.8374C243.86 30.2986 243.254 30.0292 242.547 30.0292H237.033V35.4185ZM272.885 49.1956H261.163L260.287 50.902H253.393L267.259 23.6853L281.126 50.902H273.794L272.885 49.1956ZM269.673 42.8627L267.024 36.4069L264.407 42.8627H269.673ZM317.245 50.902H310.117L299.932 34.902V50.902H293.398V23.6853H300.573L310.711 39.6516V23.6853H317.245V50.902ZM338.806 49.1956H327.082L326.208 50.902H319.313L333.181 23.6853L347.045 50.902H339.715L338.806 49.1956ZM335.594 42.8627L332.944 36.4069L330.326 42.8627H335.594Z" fill="white"/>
<path d="M368.699 30.0292H361.255V50.902H354.721V30.0292H347.309V23.6853H368.699V30.0292ZM393.132 23.6853V40.561C393.132 41.9872 392.851 43.3456 392.289 44.6255C391.716 45.9055 390.932 47.051 389.932 48.0501C388.931 49.0496 387.776 49.8244 386.483 50.3632C385.193 50.9134 383.824 51.1831 382.397 51.1831C380.972 51.1831 379.624 50.9131 378.343 50.3858C377.065 49.8581 375.918 49.0944 374.921 48.0952C373.92 47.0846 373.122 45.9281 372.54 44.637C371.955 43.3456 371.662 41.9872 371.662 40.561V23.6853H378.197V40.561C378.197 41.1673 378.311 41.7289 378.524 42.2452C378.738 42.7617 379.027 43.2107 379.411 43.5927C379.794 43.9744 380.23 44.2775 380.736 44.5021C381.242 44.7268 381.791 44.8391 382.397 44.8391C382.982 44.8391 383.532 44.7268 384.047 44.5021C384.564 44.2775 385.012 43.9744 385.395 43.5927C385.778 43.2107 386.068 42.7617 386.281 42.2452C386.495 41.7289 386.597 41.1673 386.597 40.561V23.6853H393.132ZM415.599 39.1801C415.172 39.5729 414.733 39.921 414.285 40.2243C413.835 40.5273 413.352 40.7856 412.826 40.9991L417.933 50.9471H410.568L405.853 41.7514H403.63V50.902H397.095V23.6853H409.456C410.614 23.7414 411.726 23.9772 412.77 24.3925C413.814 24.8192 414.733 25.4481 415.555 26.2678C417.351 28.0643 418.249 30.2199 418.249 32.7237C418.249 33.9364 418.023 35.093 417.564 36.2045C417.102 37.3163 416.441 38.3043 415.599 39.1801ZM403.63 35.4185H409.143C409.851 35.4185 410.456 35.1491 410.963 34.5989C411.466 34.0602 411.714 33.431 411.714 32.7237C411.714 32.0053 411.466 31.3765 410.963 30.8374C410.456 30.2986 409.851 30.0292 409.143 30.0292H403.63V35.4185ZM439.481 49.1956H427.758L426.883 50.902H419.989L433.856 23.6853L447.721 50.902H440.391L439.481 49.1956ZM436.27 42.8627L433.62 36.4069L431.005 42.8627H436.27ZM468 44.5694V50.902H449.777V23.6853H456.312V44.5694H468Z" fill="white"/>
<path d="M124.381 71.3773C124.381 73.0168 124.101 74.4424 123.551 75.6551C123 76.8789 122.293 77.9006 121.44 78.7319C120.575 79.5626 119.62 80.1801 118.565 80.5843C117.51 80.9997 116.477 81.2018 115.466 81.2018H109.762V88.7696H103.228V61.5528H115.59C118.341 61.5528 120.463 62.406 121.956 64.1014C123.449 65.8081 124.258 68.2335 124.381 71.3773ZM114.882 74.8692C115.432 74.8692 115.904 74.7568 116.286 74.5322C116.668 74.3079 116.971 74.0159 117.195 73.6568C117.42 73.3087 117.588 72.9267 117.689 72.5338C117.791 72.1407 117.847 71.7476 117.847 71.3773C117.847 71.0292 117.791 70.6589 117.689 70.2433C117.588 69.839 117.42 69.4573 117.195 69.0978C116.971 68.7498 116.668 68.4579 116.286 68.2335C115.904 68.0089 115.432 67.8966 114.882 67.8966H109.762V74.8692H114.882ZM146.445 77.0477C146.018 77.4405 145.58 77.7886 145.131 78.0919C144.682 78.395 144.199 78.6532 143.671 78.8665L148.78 88.8147H141.414L136.699 79.6188H134.475V88.7696H127.941V61.5528H140.303C141.459 61.609 142.571 61.8447 143.615 62.2601C144.659 62.6865 145.58 63.3154 146.399 64.1353C148.196 65.9318 149.094 68.0873 149.094 70.5914C149.094 71.8038 148.87 72.9606 148.41 74.0721C147.949 75.1836 147.287 76.1717 146.445 77.0477ZM134.475 73.2862H139.988C140.696 73.2862 141.302 73.0168 141.807 72.4663C142.313 71.9275 142.56 71.2986 142.56 70.5914C142.56 69.8727 142.313 69.2441 141.807 68.7047C141.302 68.1659 140.696 67.8966 139.988 67.8966H134.475V73.2862ZM179.668 75.1836C179.668 77.1036 179.309 78.9112 178.579 80.6068C177.849 82.3022 176.861 83.7732 175.592 85.0195C174.324 86.277 172.853 87.265 171.157 87.9948C169.462 88.7246 167.654 89.0841 165.734 89.0841C163.803 89.0841 161.995 88.7246 160.3 87.9948C158.605 87.265 157.134 86.277 155.865 85.0195C154.596 83.7732 153.608 82.3022 152.878 80.6068C152.148 78.9112 151.789 77.1036 151.789 75.1836C151.789 73.2525 152.148 71.4446 152.878 69.7492C153.608 68.065 154.596 66.5829 155.865 65.3141C157.134 64.0452 158.605 63.0571 160.3 62.3274C161.995 61.5976 163.803 61.2384 165.734 61.2384C167.654 61.2384 169.462 61.5976 171.157 62.3274C172.853 63.0571 174.324 64.0452 175.592 65.3141C176.861 66.5829 177.849 68.065 178.579 69.7492C179.309 71.4446 179.668 73.2525 179.668 75.1836ZM171.113 80.5282C171.831 79.8209 172.348 79.0013 172.662 78.0694C172.976 77.1483 173.134 76.1828 173.134 75.1836C173.134 74.1505 172.976 73.1738 172.662 72.2419C172.348 71.3211 171.831 70.5016 171.113 69.794C170.383 69.0867 169.552 68.5365 168.631 68.1548C167.699 67.7731 166.734 67.5821 165.734 67.5821C164.724 67.5821 163.758 67.7731 162.837 68.1548C161.917 68.5365 161.086 69.0867 160.345 69.794C159.626 70.5016 159.109 71.3211 158.795 72.2419C158.481 73.1738 158.324 74.1505 158.324 75.1836C158.324 76.1828 158.481 77.1483 158.795 78.0694C159.109 79.0013 159.626 79.8209 160.345 80.5282C161.086 81.2354 161.917 81.7859 162.837 82.1673C163.758 82.5605 164.724 82.7515 165.734 82.7515C166.734 82.7515 167.699 82.5605 168.631 82.1673C169.552 81.7859 170.383 81.2354 171.113 80.5282ZM190.807 61.5528C192.682 61.5528 194.444 61.912 196.117 62.6193C197.779 63.3379 199.228 64.3149 200.452 65.5387C201.676 66.7625 202.652 68.211 203.36 69.8727C204.067 71.5344 204.426 73.3087 204.426 75.1836C204.426 77.0588 204.067 78.81 203.36 80.4609C202.652 82.1115 201.676 83.5599 200.452 84.7837C199.228 86.0076 197.779 86.9842 196.117 87.6918C194.444 88.4105 192.682 88.7696 190.807 88.7696H182.599V61.5528H190.807ZM196.028 80.4161C196.746 79.7311 197.24 78.9563 197.498 78.0919C197.757 77.2384 197.891 76.3065 197.891 75.307C197.891 74.2967 197.757 73.3198 197.498 72.3879C197.24 71.4557 196.746 70.625 196.028 69.9177C195.343 69.2327 194.557 68.7161 193.659 68.3906C192.76 68.065 191.806 67.8966 190.807 67.8966H189.133V82.437H190.807C191.806 82.437 192.76 82.2797 193.659 81.9541C194.557 81.6397 195.343 81.1234 196.028 80.4161ZM229.42 61.5528V78.4286C229.42 79.8545 229.139 81.2129 228.578 82.4932C228.005 83.7732 227.219 84.9183 226.22 85.9175C225.221 86.917 224.064 87.6918 222.773 88.2306C221.482 88.7808 220.112 89.0504 218.686 89.0504C217.26 89.0504 215.913 88.7808 214.633 88.2531C213.352 87.7254 212.207 86.9617 211.208 85.9625C210.209 84.9519 209.412 83.7957 208.828 82.5043C208.244 81.2129 207.952 79.8545 207.952 78.4286V61.5528H214.486V78.4286C214.486 79.035 214.599 79.5963 214.812 80.1128C215.026 80.6291 215.317 81.0784 215.699 81.4604C216.081 81.8418 216.519 82.1451 217.024 82.3697C217.529 82.5941 218.08 82.7064 218.686 82.7064C219.27 82.7064 219.82 82.5941 220.336 82.3697C220.853 82.1451 221.302 81.8418 221.684 81.4604C222.065 81.0784 222.358 80.6291 222.571 80.1128C222.784 79.5963 222.885 79.035 222.885 78.4286V61.5528H229.42ZM246.857 82.7515C248.552 82.7515 250.203 82.2911 251.809 81.3592L254.818 86.5914C253.684 87.3885 252.449 87.9948 251.112 88.4327C249.776 88.8709 248.362 89.0841 246.857 89.0841C244.926 89.0841 243.118 88.7246 241.434 87.9948C239.739 87.265 238.268 86.277 236.999 85.0195C235.73 83.7732 234.731 82.3022 234.001 80.6068C233.271 78.9112 232.912 77.1036 232.912 75.1836C232.912 73.2525 233.271 71.4446 234.001 69.7492C234.731 68.065 235.73 66.5829 236.999 65.3141C238.268 64.0452 239.739 63.0571 241.434 62.3274C243.118 61.5976 244.926 61.2384 246.857 61.2384C248.362 61.2384 249.776 61.4516 251.112 61.8898C252.449 62.3274 253.684 62.9451 254.818 63.7308L251.809 68.9633C251.124 68.514 250.349 68.1659 249.507 67.9302C248.665 67.6944 247.778 67.5821 246.857 67.5821C245.858 67.5821 244.892 67.7731 243.971 68.1548C243.039 68.5365 242.209 69.0867 241.468 69.794C240.76 70.5016 240.244 71.3325 239.929 72.2645C239.604 73.2075 239.447 74.1841 239.447 75.1836C239.447 76.1828 239.604 77.1483 239.929 78.0694C240.244 79.0013 240.76 79.8209 241.468 80.5282C242.209 81.2354 243.039 81.7859 243.971 82.1673C244.892 82.5605 245.858 82.7515 246.857 82.7515ZM278.105 67.8966H270.661V88.7696H264.126V67.8966H256.715V61.5528H278.105V67.8966Z" fill="white"/>
<path d="M80.9798 54.4468V103.1C80.9798 106.471 78.2999 109.23 74.9294 109.325C66.0769 109.575 50.1383 109.451 45.4823 109.451L45.4615 109.468C41.9348 109.564 38.3997 108.943 35.1061 107.622C34.7288 107.471 34.3544 107.313 33.9879 107.141L53.543 94.5898L53.5532 94.5831C56.3981 92.8711 58.8197 90.4173 60.4603 87.4797C61.7365 85.2187 62.557 82.6792 62.8486 80.0821C62.8928 79.4331 62.9513 78.7749 62.9755 78.1259L62.972 77.1796C62.9688 76.8596 62.941 76.544 62.9279 76.229C62.8419 74.9628 62.6772 73.693 62.3859 72.4508C61.2706 67.4584 58.4696 62.8533 54.5512 59.491C52.5851 57.8196 50.3591 56.4265 47.9425 55.4483C46.7386 54.9578 45.4966 54.5495 44.2193 54.2579C42.9475 53.9662 41.6535 53.7735 40.3495 53.674C39.6972 53.6442 39.0388 53.6056 38.414 53.6231C38.0984 53.6264 37.7793 53.6196 37.4637 53.6331L36.5128 53.6849C35.878 53.7091 35.2498 53.8051 34.615 53.863C33.9879 53.9662 33.3564 54.0449 32.7316 54.1751C30.234 54.6732 27.7806 55.4758 25.4777 56.6017C24.9497 56.8559 24.4243 57.1264 23.9131 57.4145C23.3877 57.7062 22.8731 58.015 22.3686 58.3377L0 71.7368V54.4468C0 39.6235 5.61737 26.1139 14.8376 15.9264C21.0431 9.06694 28.8841 3.71595 37.7457 0.484143C39.5167 -0.161555 41.463 -0.161531 43.2338 0.485114C52.0957 3.71691 59.9376 9.07025 66.1427 15.9264C75.3623 26.1139 80.9798 39.6235 80.9798 54.4468Z" fill="#172B40"/>
<path d="M23.2058 114.063L23.0612 114.155C9.69304 109.959 0 97.4759 0 82.7246V71.7368L22.3688 58.3377C19.0468 60.4653 16.1408 63.2584 13.8521 66.5078C10.8909 70.7452 8.99294 75.7929 8.5028 80.9988C8.4751 81.3244 8.43412 81.6502 8.4166 81.976L8.37229 82.9542L8.35149 83.4412V83.9147L8.35804 84.8654C8.37913 86.1316 8.4651 87.3978 8.61547 88.66C8.91783 91.186 9.47665 93.6872 10.2935 96.1093C11.9133 100.962 14.5729 105.471 18.0142 109.293C19.5888 111.04 21.3289 112.639 23.2058 114.063Z" fill="#85D4FF"/>
<path d="M56.5613 78.1607C56.5613 78.6132 56.5403 79.0493 56.537 79.4994C56.4276 81.2729 55.9608 83.0261 55.1614 84.6325C53.5693 87.8609 50.5838 90.4243 47.0837 91.5288C46.2083 91.807 45.303 91.9956 44.3834 92.0992L43.6899 92.1536C43.457 92.1743 43.2239 92.2018 43.0075 92.1843C42.5649 92.17 42.1153 92.1843 41.6795 92.105C41.4598 92.0749 41.2367 92.0641 41.017 92.0196L40.3688 91.8719C40.2585 91.8447 40.1491 91.8277 40.043 91.797L39.7274 91.6906L39.0891 91.4811C38.2722 91.1278 37.452 90.7434 36.731 90.1979C35.246 89.1683 34.0514 87.724 33.242 86.0868C33.125 85.8912 33.0464 85.6756 32.9639 85.4626L32.7065 84.8244L32.5178 84.1654L32.4216 83.8331C32.3909 83.7229 32.3806 83.6067 32.3567 83.4929L32.2329 82.8132C32.1888 82.5868 32.192 82.3537 32.1645 82.124C32.1542 81.8977 32.1127 81.6572 32.1235 81.4373L32.1367 80.7715C32.2022 79.8861 32.3909 79.0148 32.7065 78.1779C33.0355 77.351 33.5027 76.5718 34.0689 75.8684C34.632 75.1617 35.3276 74.5612 36.0895 74.0666C36.8547 73.5763 37.6927 73.182 38.5846 72.9624C38.801 72.8863 39.0274 72.8556 39.2538 72.8147C39.4799 72.7769 39.7063 72.7184 39.9362 72.7152L40.6294 72.6599L41.2919 72.6743C42.1773 72.736 43.0452 72.9688 43.8481 73.3666C45.4542 74.1558 46.7506 75.6112 47.3379 77.3478L47.5298 78.0059L47.6535 78.6825L47.712 79.3716C47.7188 79.5989 47.7088 79.8145 47.7012 80.0374C47.626 80.9163 47.3411 81.7774 46.8644 82.535C46.3738 83.2832 45.7081 83.9323 44.9187 84.3819C44.1263 84.8244 43.2306 85.0786 42.3043 85.1125V87.2978C43.5772 87.3188 44.8637 87.0272 46.0196 86.4542C47.17 85.8745 48.1715 84.9999 48.9367 83.9457C49.6849 82.8825 50.1755 81.6294 50.351 80.3258C50.3849 79.9999 50.4118 79.6673 50.4159 79.3476C50.4095 79.0291 50.4057 78.7091 50.3849 78.3903L50.2579 77.4438L50.0383 76.5066C49.3307 74.0332 47.6085 71.8605 45.3273 70.5943C44.1912 69.956 42.9218 69.5407 41.6178 69.3871L40.6362 69.3146L39.6823 69.3389C39.3632 69.3389 39.0508 69.393 38.7317 69.4316C38.4161 69.4725 38.1002 69.51 37.7884 69.5928C36.5324 69.8399 35.3276 70.3302 34.2126 70.9684C33.1008 71.6134 32.0718 72.4195 31.2171 73.3877C30.3527 74.3514 29.625 75.4398 29.0797 76.6303C28.5543 77.8205 28.2077 79.0978 28.0497 80.3983L27.9813 81.3799C27.9579 81.7055 27.9887 82.0138 27.9922 82.337C28.0055 82.6517 27.9956 82.972 28.0365 83.2876L28.1601 84.2338C28.1842 84.3918 28.1975 84.5533 28.2318 84.7074L28.3389 85.1745L28.5617 86.1076L28.8666 87.0173C28.9703 87.3221 29.0729 87.6277 29.2166 87.9126C30.2325 90.2667 31.8246 92.3908 33.8736 93.9753C34.8716 94.8022 36.0176 95.4337 37.1914 95.9967L38.1002 96.3536L38.5603 96.5288C38.715 96.58 38.8727 96.6215 39.0306 96.666L39.9736 96.9298C40.2931 97.0059 40.6163 97.0503 40.9386 97.1085C41.5801 97.2454 42.2358 97.2764 42.8872 97.3209C43.2198 97.3525 43.5322 97.3384 43.8481 97.3282L44.8019 97.3007C46.0682 97.2214 47.3344 97.0225 48.5696 96.6967C50.3123 96.2407 51.9904 95.5232 53.5416 94.5901L33.9862 107.142C31.0837 105.828 28.3997 103.968 26.1218 101.679C23.5516 99.0984 21.4893 95.9868 20.1543 92.5619C19.4854 90.8496 18.9884 89.0654 18.6792 87.2437C18.5248 86.3305 18.4154 85.4077 18.3536 84.4813C18.2984 83.5342 18.2608 82.6517 18.3193 81.7631C18.4697 78.2054 19.5889 74.6948 21.5002 71.6309C23.4281 68.5801 26.1493 65.9792 29.3711 64.2368C30.9708 63.3438 32.6998 62.6889 34.4875 62.2387C34.9333 62.1159 35.3896 62.0433 35.8389 61.9413C36.2993 61.8831 36.752 61.7833 37.2157 61.745L37.9048 61.6698C38.1385 61.6491 38.3716 61.6455 38.6012 61.628C39.0748 61.5938 39.5144 61.6005 39.9605 61.597C43.5187 61.6555 47.0498 62.901 49.9181 65.1213C52.7799 67.3417 54.9482 70.5048 55.9298 74.0566C56.1837 74.942 56.3449 75.8508 56.4551 76.7704C56.475 77.0044 56.5096 77.234 56.5236 77.4648L56.5613 78.1607Z" fill="#85D4FF"/>
<path d="M106.016 101.25H103.051V100.179H110.204V101.25H107.238V108.824H106.016V101.25ZM118.985 100.179V108.824H117.749V104.969H112.784V108.824H111.548V100.179H112.784V103.894H117.749V100.179H118.985ZM121.58 100.179H122.816V108.824H121.58V100.179ZM132.847 100.179V108.824H131.835L126.646 102.374V108.824H125.41V100.179H126.426L131.611 106.625V100.179H132.847ZM138.26 104.983L136.678 106.586V108.824H135.442V100.179H136.678V105.008L141.373 100.179H142.781L139.087 104.069L143.015 108.824H141.569L138.26 104.983ZM153.155 106.663H148.558L147.609 108.824H146.334L150.253 100.179H151.474L155.403 108.824H154.104L153.155 106.663ZM152.721 105.672L150.858 101.436L148.992 105.672H152.721ZM164.121 106.488C164.121 107.238 163.841 107.815 163.278 108.218C162.714 108.62 161.891 108.824 160.812 108.824H156.684V100.179H160.564C161.551 100.179 162.314 100.375 162.857 100.771C163.397 101.166 163.666 101.712 163.666 102.413C163.666 102.864 163.561 103.257 163.351 103.586C163.141 103.915 162.857 104.167 162.504 104.339C163.004 104.479 163.4 104.731 163.691 105.098C163.978 105.466 164.121 105.928 164.121 106.488ZM157.92 101.177V103.946H160.452C161.086 103.946 161.576 103.827 161.919 103.593C162.259 103.358 162.43 103.011 162.43 102.56C162.43 102.108 162.259 101.762 161.919 101.527C161.576 101.292 161.086 101.177 160.452 101.177H157.92ZM162.875 106.39C162.875 105.428 162.171 104.944 160.764 104.944H157.92V107.823H160.764C161.46 107.823 161.989 107.707 162.343 107.476C162.696 107.248 162.875 106.884 162.875 106.39ZM165.333 104.5C165.333 103.67 165.532 102.913 165.935 102.238C166.334 101.562 166.884 101.033 167.584 100.652C168.281 100.27 169.069 100.077 169.94 100.077C170.805 100.077 171.59 100.27 172.29 100.652C172.987 101.033 173.536 101.562 173.932 102.231C174.328 102.903 174.524 103.659 174.524 104.5C174.524 105.34 174.328 106.096 173.932 106.765C173.536 107.437 172.987 107.966 172.29 108.348C171.59 108.729 170.805 108.922 169.94 108.922L165.333 104.5ZM173.288 104.5C173.288 103.873 173.141 103.309 172.85 102.801C172.56 102.294 172.161 101.898 171.652 101.607C171.145 101.321 170.574 101.177 169.94 101.177C169.307 101.177 168.736 101.321 168.221 101.607C167.707 101.898 167.301 102.294 167.01 102.801C166.716 103.309 166.569 103.873 166.569 104.5C166.569 105.127 166.716 105.69 167.01 106.198C167.301 106.705 167.707 107.101 168.221 107.388C168.736 107.679 169.307 107.823 169.94 107.823L173.288 104.5ZM176.337 105.095V100.179H177.574V105.042C177.574 106.894 178.386 107.823 180.007 107.823C180.798 107.823 181.404 107.595 181.824 107.136C182.244 106.681 182.454 105.984 182.454 105.042V100.179H183.652V105.095C183.652 106.338 183.33 107.283 182.689 107.938C182.045 108.593 181.145 108.922 179.993 108.922C178.841 108.922 177.944 108.593 177.304 107.934C176.659 107.276 176.337 106.331 176.337 105.095Z" fill="white"/>
<path d="M191.196 101.25H188.23V100.179H195.383V101.25H192.417V108.824H191.196V101.25ZM208.958 109.615C208.678 109.944 208.352 110.196 207.984 110.368C207.613 110.54 207.214 110.627 206.783 110.627C206.241 110.627 205.733 110.497 205.26 110.238C204.788 109.979 204.245 109.538 203.632 108.911C202.816 108.869 202.085 108.649 201.43 108.253C200.775 107.857 200.264 107.332 199.896 106.677C199.529 106.022 199.347 105.298 199.347 104.5C199.347 103.67 199.546 102.913 199.949 102.238C200.348 101.562 200.898 101.033 201.598 100.652C202.295 100.27 203.082 100.077 203.954 100.077C204.819 100.077 205.604 100.27 206.304 100.652C207 101.033 207.55 101.562 207.946 102.231C208.342 102.903 208.538 103.659 208.538 104.5C208.538 105.21 208.397 105.862 208.114 106.453C207.83 107.045 207.431 107.542 206.916 107.945C206.402 108.348 205.81 108.628 205.141 108.785C205.429 109.09 205.705 109.31 205.975 109.447C206.244 109.584 206.518 109.65 206.797 109.65C207.407 109.65 207.932 109.405 208.377 108.911L208.958 109.615ZM203.954 107.823C204.581 107.823 205.148 107.679 205.659 107.388C206.171 107.101 206.573 106.705 206.864 106.198C207.155 105.69 207.302 105.127 207.302 104.5C207.302 103.873 207.155 103.309 206.864 102.801C206.573 102.294 206.171 101.898 205.659 101.607C205.148 101.321 204.581 101.177 203.954 101.177C203.321 101.177 202.75 101.321 202.235 101.607C201.721 101.898 201.314 102.294 201.024 102.801C200.73 103.309 200.582 103.873 200.582 104.5L203.954 107.823ZM210.351 105.095V100.179H211.587V105.042C211.587 106.894 212.399 107.823 214.021 107.823C214.812 107.823 215.418 107.595 215.838 107.136C216.258 106.681 216.468 105.984 216.468 105.042V100.179H217.666V105.095C217.666 106.338 217.344 107.283 216.703 107.938C216.058 108.593 215.159 108.922 214.007 108.922C212.855 108.922 211.958 108.593 211.318 107.934C210.673 107.276 210.351 106.331 210.351 105.095Z" fill="white"/>
<path d="M226.904 106.663H222.307L221.358 108.824H220.083L224.001 100.179H225.223L229.152 108.824H227.853L226.904 106.663ZM226.47 105.672L224.607 101.436L222.741 105.672H226.47ZM230.433 100.179H231.669V107.749H236.351V108.824H230.433V100.179ZM237.772 100.179H239.008V108.824H237.772V100.179ZM243.322 101.25H240.356V100.179H247.509V101.25H244.544V108.824H243.322V101.25ZM252.166 105.834V108.824H250.944V105.809L247.509 100.179H248.829L251.599 104.734L254.376 100.179H255.601L252.166 105.834Z" fill="white"/>
</g>
<defs>
<clipPath id="clip0_0_1">
<rect width="468" height="117" fill="white"/>
</clipPath>
</defs>
</svg>
