<svg xmlns="http://www.w3.org/2000/svg" width="129" height="46" viewBox="0 0 129 46" fill="none"><g clip-path="url(#clip0)"><path d="M31.3844 44.9101C31.1531 44.9101 30.971 44.8774 30.8381 44.8105V44.2781C31.0128 44.3272 31.1949 44.351 31.3844 44.351C31.6277 44.351 31.8128 44.2781 31.9397 44.1309C32.0665 43.9836 32.1292 43.7724 32.1292 43.4958V38.1255H32.7561V43.4452C32.7561 43.9107 32.6382 44.2706 32.4024 44.5264C32.1665 44.7822 31.8277 44.9101 31.3844 44.9101Z" fill="white"></path><path d="M34.6697 39.4699V42.0815C34.6697 42.4102 34.7444 42.654 34.8951 42.8162C35.0444 42.9783 35.2802 43.0586 35.5996 43.0586C36.022 43.0586 36.331 42.9441 36.5265 42.7135C36.7221 42.483 36.8191 42.1068 36.8191 41.5862V39.4699H37.431V43.4958H36.9265L36.8385 42.956H36.8056C36.6803 43.1538 36.5071 43.3054 36.2832 43.411C36.0593 43.5166 35.8071 43.5687 35.522 43.5687C35.0309 43.5687 34.6623 43.4527 34.4175 43.2192C34.1727 42.9872 34.0503 42.6139 34.0503 42.1023V39.4684H34.6697V39.4699ZM34.6473 38.4333H36.8594V38.936H34.6473V38.4333Z" fill="white"></path><path d="M41.3357 42.3981C41.3357 42.7729 41.1954 43.0614 40.9148 43.2652C40.6342 43.4689 40.2417 43.5701 39.7357 43.5701C39.1998 43.5701 38.7819 43.4853 38.4819 43.3158V42.7506C38.6759 42.8488 38.8849 42.9261 39.1073 42.9826C39.3297 43.0391 39.5446 43.0674 39.7506 43.0674C40.07 43.0674 40.3163 43.0168 40.4879 42.9157C40.6596 42.8146 40.7462 42.6599 40.7462 42.4502C40.7462 42.294 40.6775 42.1602 40.5417 42.0486C40.4058 41.9371 40.1387 41.8062 39.7431 41.6531C39.367 41.5133 39.0998 41.3913 38.9416 41.2872C38.7834 41.1831 38.6655 41.0656 38.5879 40.9332C38.5102 40.8009 38.4714 40.6432 38.4714 40.4588C38.4714 40.1301 38.6058 39.8714 38.8729 39.6825C39.1401 39.4921 39.5088 39.3984 39.976 39.3984C40.4103 39.3984 40.8357 39.4862 41.2522 39.6632L41.0342 40.1584C40.6282 39.9918 40.2611 39.9086 39.9312 39.9086C39.6416 39.9086 39.4222 39.9532 39.2745 40.0439C39.1267 40.1346 39.0536 40.2595 39.0536 40.4187C39.0536 40.5257 39.0804 40.6179 39.1371 40.6938C39.1924 40.7696 39.2819 40.8425 39.4043 40.9109C39.5267 40.9793 39.7625 41.079 40.1118 41.2084C40.5909 41.3824 40.9148 41.5579 41.0835 41.7334C41.2522 41.9088 41.3357 42.1304 41.3357 42.3981Z" fill="white"></path><path d="M42.9058 39.47V42.0815C42.9058 42.4102 42.9804 42.6541 43.1312 42.8162C43.2805 42.9783 43.5163 43.0586 43.8357 43.0586C44.2581 43.0586 44.5671 42.9441 44.7626 42.7136C44.9581 42.4831 45.0552 42.1068 45.0552 41.5863V39.47H45.6671V43.4959H45.1626L45.0746 42.956H45.0417C44.9164 43.1538 44.7432 43.3055 44.5193 43.4111C44.2969 43.5167 44.0432 43.5688 43.7581 43.5688C43.267 43.5688 42.8983 43.4527 42.6536 43.2193C42.4088 42.9872 42.2864 42.614 42.2864 42.1024V39.4685H42.9058V39.47ZM45.1253 44.3704C45.1253 44.6009 45.2402 44.7154 45.4716 44.7154C45.5746 44.7154 45.694 44.699 45.8298 44.6678V45.0679C45.6701 45.1125 45.5164 45.1348 45.3686 45.1348C44.8596 45.1348 44.6059 44.9043 44.6059 44.4447C44.6059 44.2737 44.6581 44.1056 44.7641 43.9391C44.8701 43.774 45.0119 43.6267 45.188 43.4959H45.6298C45.4626 43.658 45.3373 43.8052 45.2522 43.9391C45.1686 44.0714 45.1253 44.2157 45.1253 44.3704Z" fill="white"></path><path d="M51.533 42.3983C51.533 42.7731 51.3927 43.0616 51.1121 43.2653C50.8315 43.4691 50.4389 43.5702 49.9329 43.5702C49.3971 43.5702 48.9792 43.4854 48.6791 43.3159V42.7508C48.8732 42.8489 49.0822 42.9263 49.3045 42.9828C49.5269 43.0393 49.7419 43.0675 49.9479 43.0675C50.2673 43.0675 50.5136 43.017 50.6852 42.9158C50.8569 42.8147 50.9434 42.66 50.9434 42.4503C50.9434 42.2942 50.8748 42.1603 50.7389 42.0488C50.6031 41.9373 50.3359 41.8064 49.9404 41.6532C49.5643 41.5134 49.2971 41.3915 49.1389 41.2873C48.9807 41.1832 48.8627 41.0658 48.7851 40.9334C48.7075 40.801 48.6687 40.6434 48.6687 40.459C48.6687 40.1303 48.803 39.8715 49.0702 39.6826C49.3374 39.4923 49.7061 39.3986 50.1732 39.3986C50.6076 39.3986 51.033 39.4863 51.4494 39.6633L51.2315 40.1586C50.8255 39.992 50.4583 39.9087 50.1285 39.9087C49.8389 39.9087 49.6195 39.9533 49.4717 40.044C49.324 40.1348 49.2508 40.2597 49.2508 40.4188C49.2508 40.5259 49.2777 40.6181 49.3344 40.6939C49.3896 40.7698 49.4792 40.8427 49.6016 40.9111C49.724 40.9795 49.9598 41.0791 50.3091 41.2085C50.7882 41.3825 51.1121 41.558 51.2808 41.7335C51.4494 41.909 51.533 42.1306 51.533 42.3983ZM48.8866 37.7329H49.3105C49.5911 37.9144 49.8598 38.1449 50.118 38.4274C50.4374 38.1092 50.7091 37.8772 50.933 37.7329H51.3718V37.8251L51.1285 38.075C50.7748 38.4378 50.5404 38.7249 50.4285 38.9376H49.8165C49.7598 38.8379 49.6687 38.71 49.5434 38.5553C49.418 38.4007 49.1986 38.1568 48.8866 37.8236V37.7329Z" fill="white"></path><path d="M53.4138 43.4959L51.8794 39.47H52.5361L53.4063 41.8584C53.6034 42.4161 53.7183 42.779 53.7526 42.9456H53.7825C53.8093 42.8162 53.8944 42.547 54.0392 42.1395C54.1825 41.732 54.5064 40.8427 55.0064 39.47H55.6632L54.1288 43.4959H53.4138Z" fill="white"></path><path d="M58.7962 43.4959L58.6753 42.9233H58.6455C58.444 43.1761 58.2425 43.3457 58.0425 43.4364C57.8424 43.5256 57.5917 43.5702 57.2917 43.5702C56.8917 43.5702 56.5767 43.4676 56.3498 43.2609C56.123 43.0557 56.0095 42.7627 56.0095 42.3834C56.0095 41.5699 56.6618 41.1446 57.9678 41.1044L58.6529 41.0821V40.8323C58.6529 40.517 58.5843 40.2835 58.4484 40.1318C58.3126 39.9816 58.0932 39.9058 57.7947 39.9058C57.4573 39.9058 57.0767 40.0084 56.6513 40.2151L56.4633 39.7481C56.6618 39.641 56.8812 39.5563 57.117 39.4953C57.3544 39.4343 57.5917 39.4031 57.8305 39.4031C58.3126 39.4031 58.6693 39.5102 58.9022 39.7228C59.135 39.9355 59.25 40.2776 59.25 40.7475V43.4959H58.7962ZM57.4141 43.0661C57.7947 43.0661 58.0947 42.962 58.3111 42.7538C58.529 42.5455 58.638 42.2541 58.638 41.8793V41.5149L58.026 41.5402C57.5394 41.558 57.1887 41.6324 56.9737 41.7662C56.7588 41.9001 56.6513 42.1068 56.6513 42.3894C56.6513 42.6095 56.7185 42.7775 56.8528 42.8921C56.9857 43.0081 57.1723 43.0661 57.4141 43.0661Z" fill="white"></path><path d="M62.3546 39.3972C62.5337 39.3972 62.6949 39.4121 62.8382 39.4418L62.7531 40.007C62.5859 39.9698 62.4382 39.9519 62.3113 39.9519C61.9844 39.9519 61.7053 40.0843 61.4724 40.349C61.2396 40.6138 61.1247 40.9424 61.1247 41.3365V43.496H60.5127V39.4701H61.0172L61.0874 40.2152H61.1172C61.2665 39.9534 61.4471 39.7512 61.659 39.6084C61.868 39.4671 62.1008 39.3972 62.3546 39.3972Z" fill="white"></path><path d="M67.08 41.4793C67.08 42.1352 66.9144 42.6483 66.583 43.0171C66.2516 43.3859 65.7934 43.5703 65.2083 43.5703C64.8471 43.5703 64.5262 43.4856 64.2456 43.316C63.965 43.1465 63.7485 42.9041 63.5963 42.5888C63.444 42.2735 63.3679 41.9032 63.3679 41.4793C63.3679 40.8234 63.5321 40.3118 63.862 39.946C64.1918 39.5801 64.6486 39.3972 65.2337 39.3972C65.7994 39.3972 66.2486 39.5846 66.5815 39.9594C66.9143 40.3327 67.08 40.8398 67.08 41.4793ZM64.0023 41.4793C64.0023 41.9939 64.1053 42.385 64.3127 42.6542C64.5187 42.9234 64.8232 43.0587 65.2232 43.0587C65.6232 43.0587 65.9277 42.9249 66.1352 42.6557C66.3427 42.388 66.4472 41.9954 66.4472 41.4778C66.4472 40.9662 66.3427 40.5766 66.1352 40.3118C65.9277 40.0456 65.6203 39.9133 65.2158 39.9133C64.8157 39.9133 64.5128 40.0442 64.3083 40.3059C64.1038 40.5691 64.0023 40.9603 64.0023 41.4793Z" fill="white"></path><path d="M70.7593 42.3981C70.7593 42.7729 70.619 43.0614 70.3399 43.2652C70.0593 43.4689 69.6667 43.5701 69.1607 43.5701C68.6249 43.5701 68.2069 43.4853 67.9069 43.3158V42.7506C68.101 42.8488 68.3099 42.9261 68.5323 42.9826C68.7547 43.0391 68.9697 43.0674 69.1756 43.0674C69.4951 43.0674 69.7413 43.0168 69.913 42.9157C70.0846 42.8146 70.1712 42.6599 70.1712 42.4502C70.1712 42.294 70.1026 42.1602 69.9667 42.0486C69.8309 41.9371 69.5637 41.8062 69.1682 41.6531C68.7921 41.5133 68.5249 41.3913 68.3667 41.2872C68.2084 41.1831 68.0905 41.0656 68.0129 40.9332C67.9353 40.8009 67.8965 40.6432 67.8965 40.4588C67.8965 40.1301 68.0308 39.8714 68.298 39.6825C68.5652 39.4921 68.9338 39.3984 69.401 39.3984C69.8354 39.3984 70.2608 39.4862 70.6772 39.6632L70.4593 40.1584C70.0533 39.9918 69.6861 39.9086 69.3563 39.9086C69.0667 39.9086 68.8473 39.9532 68.6995 40.0439C68.5517 40.1346 68.4786 40.2595 68.4786 40.4187C68.4786 40.5257 68.507 40.6179 68.5622 40.6938C68.6174 40.7696 68.707 40.8425 68.8294 40.9109C68.9518 40.9793 69.1876 41.079 69.5369 41.2084C70.016 41.3824 70.3399 41.5579 70.5085 41.7334C70.6757 41.9088 70.7593 42.1304 70.7593 42.3981Z" fill="white"></path><path d="M76.3238 42.3981C76.3238 42.7729 76.1835 43.0614 75.9029 43.2652C75.6223 43.4689 75.2297 43.5701 74.7237 43.5701C74.1879 43.5701 73.7699 43.4853 73.4699 43.3158V42.7506C73.664 42.8488 73.8729 42.9261 74.0953 42.9826C74.3177 43.0391 74.5327 43.0674 74.7387 43.0674C75.0581 43.0674 75.3044 43.0168 75.476 42.9157C75.6477 42.8146 75.7342 42.6599 75.7342 42.4502C75.7342 42.294 75.6656 42.1602 75.5297 42.0486C75.3939 41.9371 75.1267 41.8062 74.7312 41.6531C74.355 41.5133 74.0879 41.3913 73.9296 41.2872C73.7714 41.1831 73.6535 41.0656 73.5759 40.9332C73.4983 40.8009 73.4595 40.6432 73.4595 40.4588C73.4595 40.1301 73.5938 39.8714 73.861 39.6825C74.1282 39.4921 74.4968 39.3984 74.964 39.3984C75.3984 39.3984 75.8238 39.4862 76.2402 39.6632L76.0223 40.1584C75.6163 39.9918 75.2491 39.9086 74.9193 39.9086C74.6297 39.9086 74.4103 39.9532 74.2625 40.0439C74.1147 40.1346 74.0416 40.2595 74.0416 40.4187C74.0416 40.5257 74.07 40.6179 74.1252 40.6938C74.1804 40.7696 74.27 40.8425 74.3924 40.9109C74.5148 40.9793 74.7506 41.079 75.0999 41.2084C75.579 41.3824 75.9029 41.5579 76.0716 41.7334C76.2387 41.9088 76.3238 42.1304 76.3238 42.3981Z" fill="white"></path><path d="M79.8031 43.4959L79.6822 42.9233H79.6523C79.4508 43.1761 79.2493 43.3457 79.0493 43.4364C78.8493 43.5256 78.5985 43.5702 78.2985 43.5702C77.8985 43.5702 77.5836 43.4676 77.3567 43.2609C77.1298 43.0557 77.0164 42.7627 77.0164 42.3834C77.0164 41.5699 77.6686 41.1446 78.9747 41.1044L79.6598 41.0821V40.8323C79.6598 40.517 79.5911 40.2835 79.4553 40.1318C79.3195 39.9816 79.1 39.9058 78.8015 39.9058C78.4642 39.9058 78.0836 40.0084 77.6582 40.2151L77.4701 39.7481C77.6686 39.641 77.8865 39.5563 78.1239 39.4953C78.3612 39.4343 78.5985 39.4031 78.8373 39.4031C79.3195 39.4031 79.6762 39.5102 79.909 39.7228C80.1419 39.9355 80.2568 40.2776 80.2568 40.7475V43.4959H79.8031ZM78.4209 43.0661C78.8015 43.0661 79.1015 42.962 79.318 42.7538C79.5359 42.5455 79.6448 42.2541 79.6448 41.8793V41.5149L79.0329 41.5402C78.5463 41.558 78.1955 41.6324 77.9806 41.7662C77.7657 41.9001 77.6582 42.1068 77.6582 42.3894C77.6582 42.6095 77.7253 42.7775 77.8597 42.8921C77.9925 43.0081 78.1806 43.0661 78.4209 43.0661Z" fill="white"></path><path d="M83.3614 39.3972C83.5405 39.3972 83.7017 39.4121 83.845 39.4418L83.7599 40.007C83.5928 39.9698 83.445 39.9519 83.3181 39.9519C82.9912 39.9519 82.7121 40.0843 82.4793 40.349C82.2464 40.6138 82.1315 40.9424 82.1315 41.3365V43.496H81.5195V39.4701H82.024L82.0942 40.2152H82.124C82.2733 39.9534 82.4539 39.7512 82.6659 39.6084C82.8763 39.4671 83.1077 39.3972 83.3614 39.3972Z" fill="white"></path><path d="M87.9081 39.4699V39.8551L87.1603 39.9428C87.2289 40.0291 87.2901 40.1406 87.3454 40.279C87.3991 40.4173 87.426 40.5734 87.426 40.7474C87.426 41.1415 87.2901 41.4568 87.02 41.6918C86.7498 41.9268 86.3781 42.0443 85.9065 42.0443C85.7856 42.0443 85.6736 42.0339 85.5677 42.0145C85.3065 42.1514 85.1766 42.3239 85.1766 42.5321C85.1766 42.6421 85.2214 42.7239 85.3124 42.776C85.4035 42.828 85.5602 42.8548 85.7811 42.8548H86.4961C86.9334 42.8548 87.2692 42.947 87.5051 43.1299C87.7394 43.3129 87.8573 43.5806 87.8573 43.9301C87.8573 44.3762 87.6782 44.7153 87.3185 44.9488C86.9603 45.1823 86.4364 45.2998 85.7483 45.2998C85.2199 45.2998 84.8124 45.2016 84.5258 45.0053C84.2392 44.809 84.0959 44.5324 84.0959 44.1754C84.0959 43.9301 84.1751 43.7189 84.3318 43.5404C84.4885 43.3619 84.7109 43.24 84.996 43.176C84.893 43.1299 84.8064 43.0571 84.7363 42.9589C84.6661 42.8607 84.6318 42.7477 84.6318 42.6168C84.6318 42.4696 84.6706 42.3417 84.7497 42.2317C84.8288 42.1216 84.9527 42.0145 85.1229 41.9119C84.9139 41.8257 84.7437 41.6799 84.6124 41.4747C84.481 41.2694 84.4154 41.0345 84.4154 40.7697C84.4154 40.3295 84.5482 39.9889 84.8139 39.751C85.0796 39.5116 85.4557 39.3926 85.9423 39.3926C86.1543 39.3926 86.3438 39.4164 86.514 39.4654H87.9081V39.4699ZM84.6855 44.1725C84.6855 44.3896 84.7781 44.5562 84.9617 44.6677C85.1467 44.7807 85.4094 44.8373 85.7542 44.8373C86.2677 44.8373 86.6483 44.7614 86.8961 44.6082C87.1424 44.455 87.2663 44.2483 87.2663 43.9851C87.2663 43.7665 87.1991 43.6163 87.0633 43.5315C86.9274 43.4467 86.6737 43.4051 86.3005 43.4051H85.5662C85.2885 43.4051 85.0721 43.472 84.9169 43.6029C84.7631 43.7352 84.6855 43.9241 84.6855 44.1725ZM85.0169 40.7593C85.0169 41.0404 85.0975 41.2546 85.2572 41.3988C85.4169 41.5431 85.6393 41.616 85.9244 41.616C86.5214 41.616 86.82 41.3274 86.82 40.7489C86.82 40.1436 86.517 39.8417 85.9125 39.8417C85.6244 39.8417 85.4035 39.9191 85.2482 40.0737C85.0945 40.2269 85.0169 40.4559 85.0169 40.7593Z" fill="white"></path><path d="M91.2215 43.4959L91.1006 42.9233H91.0708C90.8693 43.1761 90.6678 43.3457 90.4677 43.4364C90.2677 43.5256 90.017 43.5702 89.717 43.5702C89.3169 43.5702 89.002 43.4676 88.7751 43.2609C88.5483 43.0557 88.4348 42.7627 88.4348 42.3834C88.4348 41.5699 89.0871 41.1446 90.3931 41.1044L91.0782 41.0821V40.8323C91.0782 40.517 91.0096 40.2835 90.8737 40.1318C90.7379 39.9816 90.5185 39.9058 90.22 39.9058C89.8826 39.9058 89.502 40.0084 89.0766 40.2151L88.8886 39.7481C89.0871 39.641 89.305 39.5563 89.5423 39.4953C89.7797 39.4343 90.017 39.4031 90.2558 39.4031C90.7379 39.4031 91.0946 39.5102 91.3275 39.7228C91.5603 39.9355 91.6753 40.2776 91.6753 40.7475V43.4959H91.2215ZM89.8394 43.0661C90.22 43.0661 90.52 42.962 90.7364 42.7538C90.9543 42.5455 91.0633 42.2541 91.0633 41.8793V41.5149L90.4513 41.5402C89.9647 41.558 89.614 41.6324 89.399 41.7662C89.1841 41.9001 89.0766 42.1068 89.0766 42.3894C89.0766 42.6095 89.1438 42.7775 89.2781 42.8921C89.411 43.0081 89.5991 43.0661 89.8394 43.0661Z" fill="white"></path><path d="M92.8843 38.3784C92.8843 38.2386 92.9186 38.136 92.9873 38.072C93.0559 38.0066 93.1425 37.9753 93.2455 37.9753C93.344 37.9753 93.4291 38.0081 93.4992 38.075C93.5709 38.1404 93.6067 38.243 93.6067 38.3799C93.6067 38.5167 93.5709 38.6193 93.4992 38.6862C93.4276 38.7532 93.3425 38.7874 93.2455 38.7874C93.1425 38.7874 93.0559 38.7532 92.9873 38.6862C92.9186 38.6178 92.8843 38.5167 92.8843 38.3784ZM93.5485 43.4959H92.9365V39.47H93.5485V43.4959Z" fill="white"></path><path d="M26.4037 22.323C26.4037 29.5553 20.5198 35.4179 13.2613 35.4179C6.00273 35.4179 0.120361 29.5553 0.120361 22.323C0.120361 15.0907 13.4299 0.138279 13.2628 0.304847C13.2031 0.364335 26.4037 15.0922 26.4037 22.323Z" fill="white"></path><path d="M9.13877 29.7778H5.73413V12.3774H9.13877V29.7778Z" fill="#3E4FEC"></path><path d="M15.3914 19.4848H15.4376C16.1093 18.469 17.2437 18.0764 18.4019 18.0764C21.4588 18.0764 22.3394 20.2225 22.3394 22.8533V29.7763H19.0975V23.7769C19.0975 22.4146 19.1676 20.6612 17.3377 20.6612C15.4152 20.6612 15.3914 22.8072 15.3914 24.1695V29.7778H12.1494V18.4467H15.3914V19.4848Z" fill="#3E4FEC"></path><path d="M47.1062 15.7696C46.4718 15.3785 44.9613 13.9642 41.7597 13.9642C37.5013 13.9642 35.0549 17.996 35.0549 21.9088C35.0549 25.731 37.5923 29.7033 41.7298 29.7033C44.8703 29.7033 46.7733 27.5959 47.4391 26.9341L50.0063 30.3949C49.2511 31.1474 46.23 33.7649 41.6089 33.7649C35.2056 33.7649 30.4636 28.2577 30.4636 21.9981C30.4636 15.557 35.025 9.86987 41.7 9.86987C46.2912 9.86987 48.8884 11.8865 49.372 12.3074L47.1062 15.7696Z" fill="white"></path><path d="M56.1961 33.1655H51.9675V10.4736H56.1961V33.1655Z" fill="white"></path><path d="M63.1427 26.4537C63.1427 28.3202 63.8681 30.4261 66.0727 30.4261C67.9146 30.4261 69.0027 29.1917 69.455 28.2592L72.6865 29.6141C72.082 31.0894 69.6654 33.6474 66.0712 33.6474C61.48 33.6474 58.6709 30.3963 58.6709 25.9124C58.6709 21.4285 61.0576 17.9067 65.8593 17.9067C70.7222 17.9067 72.8969 21.4879 72.8969 25.9421V26.4537H63.1427ZM68.9117 23.8362C68.6997 22.3312 67.734 20.8574 66.1026 20.8574C64.4115 20.8574 63.4741 22.3014 63.2636 23.8362H68.9117Z" fill="white"></path><path d="M84.284 33.1655V31.8107H84.2228C83.8601 32.4427 82.4407 33.6459 80.2361 33.6459C76.9135 33.6459 74.8298 31.8701 74.8298 28.7708C74.8298 25.3101 78.636 23.5343 82.3511 23.5343H84.2243C84.2243 22.2107 83.3183 20.9466 81.1436 20.9466C79.6331 20.9466 78.6061 21.4285 77.73 22.0903L76.3404 19.4415C77.4583 18.5685 79.5122 17.9067 81.4749 17.9067C86.0364 17.9067 88.3618 20.2848 88.3618 24.4981V33.1655H84.284ZM84.1034 26.4537L83.4392 26.424C81.5973 26.3333 79.1509 26.7854 79.1196 28.6503C79.1196 29.733 79.9659 30.5763 81.5958 30.5763C83.287 30.5763 84.1034 28.8005 84.1034 27.1453V26.4537Z" fill="white"></path><path d="M95.8204 19.7437H95.8816C96.7577 18.42 98.2369 17.9084 99.7474 17.9084C103.734 17.9084 104.882 20.7074 104.882 24.1384V33.1672H100.653V25.343C100.653 23.5673 100.744 21.28 98.3578 21.28C95.8502 21.28 95.8204 24.0789 95.8204 25.8546V33.1672H91.5918V18.3903H95.8204V19.7437Z" fill="white"></path><path d="M118.547 33.1655H114.318V10.4736H118.547V33.1655Z" fill="white"></path><path d="M126.34 21.9401V26.9668C126.34 29.2244 126.641 29.6156 127.517 29.6156H128.122V33.167H126.401C124.831 33.167 123.531 32.7149 122.746 31.4508C122.111 30.4276 122.111 28.9523 122.111 27.7788V21.9401H120.662V18.3886H122.111V13.3931H126.34V18.3886H128.122V21.9401H126.34Z" fill="white"></path><path d="M110.746 32.5659C111.563 31.7516 111.563 30.4315 110.746 29.6172C109.929 28.8029 108.604 28.8029 107.787 29.6172C106.97 30.4315 106.97 31.7516 107.787 32.5659C108.604 33.3802 109.929 33.3802 110.746 32.5659Z" fill="#FFB300"></path></g><defs><clipPath id="clip0"><rect width="128" height="45" fill="white" transform="translate(0.120361 0.302734)"></rect></clipPath></defs></svg>